<?xml version="1.0" encoding="UTF-8"?>
<svg width="200" height="200" viewBox="0 0 200 200" xmlns="http://www.w3.org/2000/svg">
    <defs>
        <!-- Shadow filter -->
        <filter id="shadow" x="-20%" y="-20%" width="140%" height="140%">
            <feDropShadow dx="2" dy="2" stdDeviation="3" flood-color="#000000" flood-opacity="0.2" />
        </filter>
    </defs>

    <!-- Background circle -->
    <circle cx="100" cy="100" r="95" fill="#2d3748" filter="url(#shadow)" />

    <!-- Command flow (left side) -->
    <g id="command-flow">
        <!-- Command arrow -->
        <path d="M 25 80 L 75 80 L 70 75 M 75 80 L 70 85"
            stroke="#ffffff" stroke-width="3" fill="none" stroke-linecap="round" />
        <!-- Command box -->
        <rect x="20" y="60" width="30" height="15" rx="3" fill="#ffffff" opacity="0.9" />
        <text x="35" y="71" text-anchor="middle" font-family="Arial, sans-serif"
            font-size="8" font-weight="bold" fill="#2d3748">CMD</text>
    </g>

    <!-- Query flow (right side) -->
    <g id="query-flow">
        <!-- Query arrow -->
        <path d="M 175 120 L 125 120 L 130 115 M 125 120 L 130 125"
            stroke="#ffffff" stroke-width="3" fill="none" stroke-linecap="round" />
        <!-- Query box -->
        <rect x="150" y="105" width="30" height="15" rx="3" fill="#ffffff" opacity="0.9" />
        <text x="165" y="116" text-anchor="middle" font-family="Arial, sans-serif"
            font-size="8" font-weight="bold" fill="#2d3748">QRY</text>
    </g>

    <!-- Central Handler Hub -->
    <g id="handler-hub">
        <!-- Main hexagon -->
        <polygon points="100,65 120,80 120,120 100,135 80,120 80,80"
            fill="#4a5568" stroke="#ffffff" stroke-width="2" filter="url(#shadow)" />

        <!-- Inner circle -->
        <circle cx="100" cy="100" r="18" fill="#ffffff" opacity="0.95" />

        <!-- Handler symbol (gear-like) -->
        <g transform="translate(100,100)">
            <circle r="12" fill="#2d3748" />
            <circle r="8" fill="#ffffff" />
            <circle r="4" fill="#2d3748" />

            <!-- Gear teeth -->
            <g stroke="#2d3748" stroke-width="2" fill="none">
                <line x1="0" y1="-14" x2="0" y2="-16" />
                <line x1="10" y1="-10" x2="11.5" y2="-11.5" />
                <line x1="14" y1="0" x2="16" y2="0" />
                <line x1="10" y1="10" x2="11.5" y2="11.5" />
                <line x1="0" y1="14" x2="0" y2="16" />
                <line x1="-10" y1="10" x2="-11.5" y2="11.5" />
                <line x1="-14" y1="0" x2="-16" y2="0" />
                <line x1="-10" y1="-10" x2="-11.5" y2="-11.5" />
            </g>
        </g>
    </g>

    <!-- Brand text -->
    <g id="brand-text">
        <text x="100" y="170" text-anchor="middle" font-family="Arial, sans-serif"
            font-size="18" font-weight="bold" fill="#ffffff">Handlr</text>
        <text x="100" y="185" text-anchor="middle" font-family="Arial, sans-serif"
            font-size="10" fill="#ffffff" opacity="0.8">CQRS Made Simple</text>
    </g>
</svg>